# xmcd CD database file
#
# Track frame offsets:
#	183
#	17150
#	25555
#	33705
#	45098
#	56018
#	60373
#	71413
#	83975
#	88445
#	104173
#	112095
#	124908
#	133390
#	145458
#	156458
#	172920
#
# Disc length: 2521 seconds
#
# Revision: 0
# Processed by: cddbd v1.4PL0 Copyright (c) Steve Scherf et al.
# Submitted via: CDex 1.50
#
DISCID=f709d711
DTITLE=Billie Holiday - Legendary Unissued and Rare Masters (1952-58)
DYEAR=1900
DGENRE=Jazz
TTITLE0=I Cover The Waterfront
TTITLE1=Lover Come Back To Me
TTITLE2=Them There Eyes
TTITLE3=Lover Man
TTITLE4=I Got It Bad And That Ain't Good
TTITLE5=Just Friends
TTITLE6=Everything Happens To Me
TTITLE7=Prelude To A Kiss
TTITLE8=I Must Have That Man
TTITLE9=Willow Weep For Me
TTITLE10=I Only Have Eyes For You
TTITLE11=My Man
TTITLE12=Please Don't Talk About me When I'm Gone
TTITLE13=Don't Explain
TTITLE14=Porgy
TTITLE15=Ain't Nobody's Business But My Own
TTITLE16=Billie's Blues
EXTD=
EXTT0=
EXTT1=
EXTT2=
EXTT3=
EXTT4=
EXTT5=
EXTT6=
EXTT7=
EXTT8=
EXTT9=
EXTT10=
EXTT11=
EXTT12=
EXTT13=
EXTT14=
EXTT15=
EXTT16=
PLAYORDER=
